<svg xmlns="http://www.w3.org/2000/svg" viewBox="0 0 845.06 478.71"><defs><style>.cls-1{isolation:isolate;}.cls-2{fill:#589fb5;}.cls-3{fill:#0a344d;}.cls-10,.cls-4,.cls-6{fill:#185570;}.cls-4{opacity:0.5;}.cls-5{fill:#cee7ea;}.cls-6{opacity:0.3;}.cls-7{fill:#fafafa;}.cls-8{fill:#6ebecc;}.cls-9{fill:#fff;}.cls-11{fill:#1f2036;}.cls-12{opacity:0.2;}.cls-13{fill:none;}.cls-14{fill:#f2b78f;}.cls-15,.cls-17{fill:#b93423;}.cls-15,.cls-16{mix-blend-mode:multiply;opacity:0.25;}.cls-18{fill:#badff8;}.cls-19{fill:#a5cfe5;}.cls-20{fill:#53a59b;}.cls-21{fill:#3a897e;}.cls-22{fill:#67b7af;}.cls-23{fill:#f5cbbf;}.cls-24{fill:#9facdd;}.cls-25{fill:#092d3f;}.cls-26{fill:#a3cee5;}.cls-27{fill:#e8bdb3;}.cls-28{fill:#2d2f44;}.cls-29{fill:#eee;}.cls-30{fill:#57463a;}.cls-31{fill:#44362c;}.cls-32{fill:#0d2752;}</style></defs><g class="cls-1"><g id="Calque_2" data-name="Calque 2"><g id="Calque_1-2" data-name="Calque 1"><path class="cls-2" d="M9,462l282.42-1.14H391.62l75.43,0,344.58-.07c13.9,0,30.08-51.29,31.59-58.79C853,353.16,821.86,329,793.58,291.8c-32.28-42.5.08-91.37-3.83-137.16C783.63,83,726.63,31.59,646,13.41A560.37,560.37,0,0,0,436.3,6.92C364.57,18.37,316.11,44.73,257.15,77.85c-41.92,23.55-94.63,19.43-139.32,36.76C56.94,138.23,19.36,197.8,30.5,253c6.88,34.09,29.87,69.54,13,101.12-7.83,14.67-23.22,25.56-33,39.38C-6.4,417.39.15,437.76,9,462Z"/><rect class="cls-3" x="2.34" y="461.85" width="841.91" height="16.86" rx="8.02"/><rect class="cls-4" x="318.15" y="24.25" width="222.96" height="415.45" rx="8.48" transform="translate(661.61 -197.65) rotate(90)"/><rect class="cls-5" x="312.78" y="19.45" width="222.96" height="415.45" rx="8.48" transform="translate(651.44 -197.09) rotate(90)"/><path class="cls-6" d="M421.87,55.45H734.72a3.64,3.64,0,0,1,3.64,3.64v187a4.49,4.49,0,0,1-4.49,4.49h-312a3.64,3.64,0,0,1-3.64-3.64V59.09A3.64,3.64,0,0,1,421.87,55.45Z"/><rect class="cls-7" x="412.6" y="49.79" width="320.13" height="195.17" rx="3.64"/><path class="cls-8" d="M428.16,67.12a3,3,0,1,1,3-3A3,3,0,0,1,428.16,67.12Z"/><path class="cls-8" d="M428.16,62.11a2,2,0,1,1-2,2,2,2,0,0,1,2-2m0-2a4,4,0,1,0,4,4,4,4,0,0,0-4-4Z"/><path class="cls-8" d="M443.08,67.12a3,3,0,1,1,3-3A3,3,0,0,1,443.08,67.12Z"/><path class="cls-8" d="M443.08,62.11a2,2,0,1,1-2,2,2,2,0,0,1,2-2m0-2a4,4,0,1,0,4,4,4,4,0,0,0-4-4Z"/><path class="cls-8" d="M458,67.12a3,3,0,1,1,3-3A3,3,0,0,1,458,67.12Z"/><path class="cls-8" d="M458,62.11a2,2,0,1,1-2,2,2,2,0,0,1,2-2m0-2a4,4,0,1,0,4,4,4,4,0,0,0-4-4Z"/><rect class="cls-5" x="424.16" y="80.21" width="89.01" height="62.39" rx="2.43"/><rect class="cls-5" x="527.16" y="80.21" width="89.01" height="62.39" rx="2.43"/><rect class="cls-5" x="630.16" y="80.21" width="89.01" height="62.39" rx="2.43"/><path class="cls-8" d="M428.05,163.1a2.31,2.31,0,0,1,0-4.61H715.86a2.31,2.31,0,0,1,0,4.61Z"/><path class="cls-8" d="M715.86,159.49a1.31,1.31,0,0,1,0,2.61H428.05a1.31,1.31,0,0,1,0-2.61H715.86m0-2H428.05a3.31,3.31,0,0,0,0,6.61H715.86a3.31,3.31,0,0,0,0-6.61Z"/><path class="cls-5" d="M715.86,181.27H428.05a3.3,3.3,0,0,1-3.3-3.3h0a3.31,3.31,0,0,1,3.3-3.31H715.86a3.31,3.31,0,0,1,3.3,3.31h0A3.3,3.3,0,0,1,715.86,181.27Z"/><path class="cls-8" d="M428.05,197.44a2.31,2.31,0,0,1,0-4.61H587.74a2.31,2.31,0,0,1,0,4.61Z"/><path class="cls-8" d="M587.74,193.83a1.31,1.31,0,0,1,0,2.61H428.05a1.31,1.31,0,0,1,0-2.61H587.74m0-2H428.05a3.31,3.31,0,0,0,0,6.61H587.74a3.31,3.31,0,0,0,0-6.61Z"/><path class="cls-8" d="M427.09,221a1.34,1.34,0,1,1,0-2.68h40.55a1.34,1.34,0,1,1,0,2.68Z"/><path class="cls-8" d="M467.64,219.3a.34.34,0,1,1,0,.68H427.09a.34.34,0,0,1,0-.68h40.55m0-2H427.09a2.34,2.34,0,1,0,0,4.68h40.55a2.34,2.34,0,1,0,0-4.68Z"/><path class="cls-5" d="M550.2,222H485.72a2.34,2.34,0,0,1-2.34-2.34h0a2.34,2.34,0,0,1,2.34-2.34H550.2a2.34,2.34,0,0,1,2.34,2.34h0A2.34,2.34,0,0,1,550.2,222Z"/><path class="cls-8" d="M568.5,221a1.34,1.34,0,0,1,0-2.68h10.94a1.34,1.34,0,0,1,0,2.68Z"/><path class="cls-8" d="M579.44,219.3a.34.34,0,0,1,0,.68H568.5a.34.34,0,1,1,0-.68h10.94m0-2H568.5a2.34,2.34,0,0,0,0,4.68h10.94a2.34,2.34,0,0,0,0-4.68Z"/><circle class="cls-8" cx="432.34" cy="292.38" r="17.08"/><path class="cls-8" d="M432.34,276.3a16.08,16.08,0,1,1-16.08,16.08,16.1,16.1,0,0,1,16.08-16.08m0-2a18.08,18.08,0,1,0,18.09,18.08,18.08,18.08,0,0,0-18.09-18.08Z"/><circle class="cls-8" cx="543.29" cy="292.38" r="17.08"/><path class="cls-8" d="M543.29,276.3a16.08,16.08,0,1,1-16.08,16.08,16.1,16.1,0,0,1,16.08-16.08m0-2a18.08,18.08,0,1,0,18.09,18.08,18.08,18.08,0,0,0-18.09-18.08Z"/><circle class="cls-8" cx="487.82" cy="292.38" r="17.08"/><path class="cls-8" d="M487.82,276.3a16.08,16.08,0,1,1-16.08,16.08,16.09,16.09,0,0,1,16.08-16.08m0-2a18.08,18.08,0,1,0,18.08,18.08,18.07,18.07,0,0,0-18.08-18.08Z"/><path class="cls-9" d="M551.31,291.38a1.92,1.92,0,0,1-1.89-1.57.69.69,0,0,0-.68-.56.69.69,0,0,0-.68.56,1.93,1.93,0,1,1-3.8-.72,4.56,4.56,0,0,1,9,0,1.93,1.93,0,0,1-1.53,2.26Z"/><path class="cls-9" d="M540.43,291.38a1.93,1.93,0,0,1-1.9-1.57.69.69,0,0,0-1.36,0,1.93,1.93,0,1,1-3.79-.72,4.56,4.56,0,0,1,9,0,1.94,1.94,0,0,1-1.54,2.26Z"/><path class="cls-9" d="M543.29,304.13a11.66,11.66,0,0,1-10-5.67,1.93,1.93,0,1,1,3.3-2,7.88,7.88,0,0,0,13.49,0,1.93,1.93,0,0,1,3.3,2A11.67,11.67,0,0,1,543.29,304.13Z"/><path class="cls-9" d="M485.11,288.78a3.06,3.06,0,1,1-3.06-3.06A3.06,3.06,0,0,1,485.11,288.78Z"/><circle class="cls-9" cx="493.59" cy="288.78" r="3.06"/><path class="cls-9" d="M440.74,302.2a1.92,1.92,0,0,1-1.65-.93,7.88,7.88,0,0,0-13.49,0,1.93,1.93,0,1,1-3.3-2,11.73,11.73,0,0,1,20.09,0,1.93,1.93,0,0,1-1.65,2.93Z"/><path class="cls-9" d="M429.63,288.78a3.06,3.06,0,1,1-3.06-3.06A3.06,3.06,0,0,1,429.63,288.78Z"/><circle class="cls-9" cx="438.11" cy="288.78" r="3.06"/><path class="cls-9" d="M495.11,300.68H480.53a1.93,1.93,0,1,1,0-3.86h14.58a1.93,1.93,0,0,1,0,3.86Z"/><rect class="cls-10" x="238.08" y="145.95" width="143.43" height="146.3" rx="4.3" transform="translate(528.89 -90.7) rotate(90)"/><path class="cls-7" d="M383,311.42H255.28a2.6,2.6,0,1,1,0-5.2H383a2.6,2.6,0,1,1,0,5.2Z"/><path class="cls-2" d="M255.28,311.42H236.65a2.6,2.6,0,1,1,0-5.2h18.63a2.6,2.6,0,1,1,0,5.2Z"/><path class="cls-10" d="M261.65,308.82a6.37,6.37,0,1,1-6.37-6.37A6.37,6.37,0,0,1,261.65,308.82Z"/><circle class="cls-9" cx="309.28" cy="217.45" r="21.94"/><path class="cls-9" d="M267,211.2a1.48,1.48,0,0,0-1.61.32L261,215.94v-3.37a1.48,1.48,0,0,0-2.53-1l-4.88,4.89a1.47,1.47,0,0,0,0,2.09l4.88,4.88a1.5,1.5,0,0,0,1,.43,1.55,1.55,0,0,0,.56-.11,1.48,1.48,0,0,0,.92-1.37V219l4.41,4.42a1.5,1.5,0,0,0,1.05.43,1.55,1.55,0,0,0,.56-.11,1.48,1.48,0,0,0,.92-1.37v-9.76A1.48,1.48,0,0,0,267,211.2Z"/><path class="cls-9" d="M365,216.41l-4.89-4.89a1.48,1.48,0,0,0-2.52,1v3.37l-4.41-4.42a1.48,1.48,0,0,0-2.53,1v9.76a1.48,1.48,0,0,0,.91,1.37,1.65,1.65,0,0,0,.57.11,1.5,1.5,0,0,0,1-.43l4.41-4.42v3.37a1.48,1.48,0,0,0,.91,1.37,1.65,1.65,0,0,0,.57.11,1.48,1.48,0,0,0,1-.43L365,218.5A1.49,1.49,0,0,0,365,216.41Z"/><path class="cls-10" d="M321.2,216.56,302.86,206a1,1,0,0,0-1.54.89V228a1,1,0,0,0,1.54.89l18.34-10.59A1,1,0,0,0,321.2,216.56Z"/><path class="cls-10" d="M240.67,132.46a3.14,3.14,0,1,1-3.14-3.13A3.14,3.14,0,0,1,240.67,132.46Z"/><path class="cls-10" d="M252.35,132.46a3.14,3.14,0,1,1-3.14-3.13A3.14,3.14,0,0,1,252.35,132.46Z"/><path class="cls-10" d="M264,132.46a3.14,3.14,0,1,1-3.14-3.13A3.14,3.14,0,0,1,264,132.46Z"/><path class="cls-11" d="M399.92,236.49,403,447.35H387.72S372.27,355,377.53,340.64l-20.3-104.15Z"/><path class="cls-12" d="M399.92,236.49H357.23l20.3,104.15c0,7.46-1.74,13.79-.06,30.32l25.08,45.83Z"/><path class="cls-11" d="M387.53,229,334,442.16l-14.76,1.78S327,349.6,335.75,337.06L343,231.19Z"/><path class="cls-9" d="M419.93,450c1.92,0,3.72,1.29,5,2.69a5.25,5.25,0,0,1,1.18,4.74,3.37,3.37,0,0,1-.92,1.68c-1,.93-2.49,1-3.87,1-11.62.22-20.84.36-32.47.43-.17,0-.52-10.26-.2-11.33,1-3.34,4.34-2.83,7.54-2.92C405,446.12,403.25,450.45,419.93,450Z"/><path class="cls-13" d="M355.52,459.31a3.87,3.87,0,0,0,1.68-.74,3.66,3.66,0,0,0,1-2.1,16.36,16.36,0,0,0-.5-8.1c-5.17-1.5-11.32-.75-15.34-4.33-1.08-1-1.91-2.18-3-3.11-7.22-6.13-16.61,0-19.53,10.55C325,461.12,346.9,461.52,355.52,459.31Z"/><path class="cls-9" d="M316.37,450.09a25.38,25.38,0,0,0,13.23,10.53,19.94,19.94,0,0,0,6.42,1.14,54.9,54.9,0,0,0,15.17-1.4,5.21,5.21,0,0,0-2.17-7.09c-1.81-.85-3.95-.54-5.88-1-3.94-1-6.2-5.07-7.95-8.76a1.66,1.66,0,0,0-1.62-1.27c-3.28-.43-8.91-2.36-12.06-.95C320.25,441.81,316.37,450.09,316.37,450.09Z"/><path class="cls-3" d="M403.66,87.13s1.28,3.15-.65,5.65l-7.87-9.42,5.49,0Z"/><path class="cls-14" d="M360.9,99.59c.35,12.15,12.21,19.19,12.21,19.19l-.8,11.06,8,4.59,5.49,3.14,3.15-5.82.78-10.71,3,.19c1.73-.33,5.14.42,6.79-.23,2.57-1,3.33-5.4,4-7.67,1.78-6.23-.32-14-1.11-18.79C401.59,89.93,400,88,397.43,84c-1.58-2.51-3.95-4.53-7.06-4.48C370.7,79.92,360.54,87.43,360.9,99.59Z"/><path class="cls-3" d="M373.59,97.86a36.07,36.07,0,0,0,.08,19.7,1.26,1.26,0,0,1-.34,1.54,1.8,1.8,0,0,1-.76.25h-.1a1.4,1.4,0,0,1-.88-.28c-4.4-3.41-23.75-19.81-8.38-35.24,0,0,12.2.7,14.07,5.9s-1.95,7.49-1.95,7.49Z"/><path class="cls-3" d="M403.66,87.13s-4.05,5.65-26.9,1.61l-13.28-3s-.56-.17-.27-1.92,1.76-19,25-15.15C401.62,70.92,409.81,79.11,403.66,87.13Z"/><path class="cls-14" d="M370,109.16l.31.11c2.74.92,3.21-2.45,2.9-4.06a5.15,5.15,0,0,0-2.16-3.2,4.3,4.3,0,0,0-1.48-.7c-3.72-.88-4.82,3.14-3.23,5.24A8.58,8.58,0,0,0,370,109.16Z"/><path class="cls-3" d="M372.57,119.35h-.1a1.4,1.4,0,0,1-.88-.28c-4.4-3.41-23.75-19.81-8.38-35.24a14.21,14.21,0,0,0-.45,4.92S353,102.75,372.57,119.35Z"/><path class="cls-14" d="M494,127.05s6.92-6.57,6.78-8.7,3.66-11.69,5.08-13.72,5.7-5.88,7.63-6.54,10.16-1.45,9,.21-5.27,2-6.53,3l-1.26,1s1.76,1.41,1.4,2.56,3,2.11,2.2,4.09.79,1.54.15,3.58c-1.06,3.36-6.33,8.6-9.43,9s-7.76,10.1-7.76,10.1"/><path class="cls-14" d="M372.85,111.07c-.27,4.8.11,13.17-1.44,14.41s-6.58,1-6.58,1,18,20.07,19.56,19,22.85-16.41,18.08-17.19-9.45-.63-9.31-2.81.27-4.37.4-6.55"/><path class="cls-8" d="M352.51,238.28s32.91,3.52,41,3.67,7.67-3.58,7.67-3.58c.4-7.85,3.9-46.36,5.57-52.62,1.56-5.86,2.25-8,3.61-13.58,3-12.36,2.88-14.72,6.07-30l-20.93-14.87s-2.17,5.69-10.94,5.79c-11.73.13-15.38-7.13-15.38-7.13l-28.55,16.76-2.68,40.75,3.56,53.58"/><path class="cls-8" d="M461.21,169.17c-8.55,0-39.21-7.31-50.1-10.77L395.4,128.56a2.53,2.53,0,0,1,.93-.45,64.78,64.78,0,0,1,8.43-.66,31.83,31.83,0,0,1,3.87.21c4.14.47,7.73,2.52,11.52,4.69,1.36.78,2.77,1.59,4.2,2.3l4.27,2.23c13.53,7.1,28.29,14.67,32,14.67h.11c4.37-.16,30.35-23.89,36.87-29.91l9,5.18c-5,6-33.56,40.05-44.06,42.25A6.48,6.48,0,0,1,461.21,169.17Z"/><path class="cls-8" d="M497.74,122.87l7.35,4.23c-10.22,12.32-34,39.15-42.75,41a5.68,5.68,0,0,1-1.13.08c-8.38,0-38.24-7.11-49.41-10.6l-15-28.51a61.35,61.35,0,0,1,8-.61,31.81,31.81,0,0,1,3.75.2c3.95.45,7.44,2.45,11.14,4.57,1.38.78,2.8,1.6,4.25,2.33.85.43,2.35,1.21,4.25,2.21,17.41,9.13,28.92,14.79,32.48,14.79h.15c1.2,0,3.43-.13,21.25-15.62,6.74-5.86,13.21-11.76,15.71-14.06m-.27-2.46s-32.4,30-36.76,30.14h-.08c-4.58,0-30.8-14.25-35.83-16.79-5.26-2.65-10.12-6.42-16.06-7.1a35.25,35.25,0,0,0-4-.21,64.67,64.67,0,0,0-8.56.67,4.73,4.73,0,0,0-2.06,1.19l16.27,30.92c10.68,3.44,41.95,10.94,50.8,10.94a8,8,0,0,0,1.54-.12c12-2.5,45.38-43.51,45.38-43.51l-10.66-6.13Z"/><path class="cls-15" d="M461.37,163.78c8.33-1.28,40.92-34.55,44.69-38.43l2.07,1.19s-33.42,41-45.38,43.51c-4.84,1-30-4.61-44.88-8.66L414,160.32l-.17-11.45S452.52,165.13,461.37,163.78Z"/><g class="cls-16"><path class="cls-17" d="M354.22,150.68c4.67,18.65,5.5,33.25,6.81,46.59,16.39,5.62,23.07,14,39.1,20.3,0,0,12.67-1.85,14,2.37.76,2.43-14.83,4.37-14.83,4.37-14.86.06-54.06-9.54-56.71-10.18s-5-42-5.35-65.91c0-3.39.09-7.07,2.5-9.72a10.29,10.29,0,0,1,3.76-3.16c10.46-4.73,13.94-8.7,25.66-9.36"/></g><path class="cls-14" d="M397.92,220.46c1.76-2,5-2.24,7.81-2.18,2.09.05,4.18.19,6.26.44.95.12,2,.31,2.14,1.22s-4.6,0-7.06.63a140.31,140.31,0,0,0,14.5.34,4.64,4.64,0,0,1,1.67.16,1.23,1.23,0,0,1,.94,1.12,1.49,1.49,0,0,1-.66,1,10.55,10.55,0,0,1-5,1.78c-7.4,1.14-15.17.95-22-1.72"/><path class="cls-8" d="M355.24,150.33c.39,19.94,2,29.07,1.55,49,11.33,2.14,27,13.47,43,19.78a6.71,6.71,0,0,1-.53,5.19c-1.22.4-54.09-11-58.3-14.4-3.78-3.09-3.45-40.47-3.76-64.37,0-3.39.09-7.07,2.5-9.72a14.21,14.21,0,0,1,4.83-3.16c10.46-4.73,12.87-6,24.59-6.68"/><path class="cls-8" d="M355,150.33c.23,12.41,1.31,24.78,1.52,37.19q.09,5.91-.05,11.82a.36.36,0,0,0,.27.36c5.31,1,10.29,3.49,15.07,5.93,5.89,3,11.64,6.26,17.55,9.22,3.4,1.7,6.86,3.31,10.4,4.71l-.31-.32a6,6,0,0,1-.49,4.84l.27-.21c.11,0,.05,0-.08,0l-.39,0-.46-.07c-.24,0-.48-.07-.72-.12-1.45-.24-2.89-.52-4.34-.81-4.56-.9-9.11-1.89-13.65-2.9q-8.18-1.81-16.31-3.8c-4.82-1.18-9.63-2.4-14.38-3.81-1.67-.49-3.34-1-5-1.6-.57-.22-1.06-.4-1.58-.65l-.58-.29-.24-.14c-.06,0-.22-.18-.11-.08a2.69,2.69,0,0,1-.66-1,12.65,12.65,0,0,1-.63-2.18,53,53,0,0,1-.94-6.65c-.63-6.7-.81-13.45-1-20.18-.18-7.83-.23-15.66-.3-23.49,0-3.63-.09-7.25-.12-10.88a18.3,18.3,0,0,1,.76-6.29,9.08,9.08,0,0,1,4.41-4.84c1.92-1.06,4-1.88,6-2.79,1.59-.71,3.18-1.42,4.8-2.05a41.12,41.12,0,0,1,9.14-2.31c2.09-.28,4.21-.51,6.31-.63.35,0,.35-.56,0-.54-4.49.25-9,.46-13.29,1.77a55.07,55.07,0,0,0-5.54,2.07c-2.37,1-4.76,2-7.07,3.17a10.77,10.77,0,0,0-5.51,5.31,18.57,18.57,0,0,0-1,7.51c0,4.58.08,9.15.12,13.73.07,9.5.16,19,.54,28.52.16,3.91.36,7.83.72,11.73a47.1,47.1,0,0,0,1.23,8,4.53,4.53,0,0,0,2.05,3.19,27.9,27.9,0,0,0,4.61,1.76c5.58,1.78,11.29,3.19,17,4.57q10,2.43,20,4.59c4.68,1,9.38,2,14.11,2.84.55.1,1.11.19,1.67.25a2.85,2.85,0,0,0,.41,0c.54,0,.72-.58.91-1a6.73,6.73,0,0,0,.44-3.29,3.1,3.1,0,0,0-.39-1.65,2.28,2.28,0,0,0-.81-.36l-1-.42c-.71-.29-1.42-.6-2.13-.91-1.36-.59-2.7-1.21-4-1.85-5.28-2.52-10.41-5.33-15.59-8.06a122.55,122.55,0,0,0-13.71-6.49,36.61,36.61,0,0,0-6-1.74l.27.36q.19-9.84-.26-19.68c-.26-5.84-.67-11.67-.95-17.51q-.29-5.91-.42-11.82a.29.29,0,0,0-.58,0Z"/><path class="cls-7" d="M578.2,376.45H699A23.58,23.58,0,0,1,722.56,400v0a24.11,24.11,0,0,1-24.11,24.11H578.2a0,0,0,0,1,0,0V376.45A0,0,0,0,1,578.2,376.45Z"/><path class="cls-18" d="M830.23,396.07v7.18a22,22,0,0,1-2.64,10.51,19.35,19.35,0,0,1-16.88,10.38H574.33a2.94,2.94,0,0,1-2.83-3V420a2.93,2.93,0,0,1,2.83-3h144.1a20.07,20.07,0,0,0,2-3.25,20.53,20.53,0,0,0,2.11-9.12v-9.12a20.26,20.26,0,0,0-.58-4.85,19.73,19.73,0,0,0-3.34-7.09H574.33a2.93,2.93,0,0,1-2.83-3v-1.07a2.94,2.94,0,0,1,2.83-3H811.9c8.37,0,15.43,6,17.63,14.22A20.82,20.82,0,0,1,830.23,396.07Z"/><path class="cls-19" d="M829.53,390.67H722a19.73,19.73,0,0,0-3.34-7.09H574.33a2.93,2.93,0,0,1-2.83-3v-1.07a2.94,2.94,0,0,1,2.83-3H811.9C820.27,376.45,827.33,382.46,829.53,390.67Z"/><polygon class="cls-5" points="578.2 400.3 595.7 401.1 578.2 401.58 578.2 400.3"/><polygon class="cls-5" points="578.2 407.78 619.84 408.58 578.2 409.06 578.2 407.78"/><path class="cls-10" d="M542.06,424H663.94a19.13,19.13,0,0,1,19.13,19.13v0a18,18,0,0,1-18,18h-123a0,0,0,0,1,0,0V424a0,0,0,0,1,0,0Z" transform="translate(1225.13 885.17) rotate(180)"/><path class="cls-7" d="M659.76,424H798.81a18.75,18.75,0,0,1,18.75,18.75v0a18.34,18.34,0,0,1-18.34,18.34H659.76a0,0,0,0,1,0,0V424A0,0,0,0,1,659.76,424Z" transform="translate(1477.32 885.17) rotate(-180)"/><rect class="cls-10" x="647.9" y="455.58" width="176.98" height="5.55" rx="2.77" transform="translate(1472.78 916.72) rotate(-180)"/><rect class="cls-10" x="647.9" y="424.04" width="176.98" height="5.55" rx="2.77" transform="translate(1472.78 853.63) rotate(180)"/><polygon class="cls-5" points="817.56 442.59 798.43 443.21 817.56 443.58 817.56 442.59"/><polygon class="cls-5" points="817.56 434.05 772.05 434.67 817.56 435.05 817.56 434.05"/><path class="cls-10" d="M772.51,434.55a8.61,8.61,0,0,1,2.6,4.21,6.86,6.86,0,0,1,.2,1.47c.11,3.48,0,11.36,0,11.36l5.76-3.94,5.75,3.94V440.91a9.45,9.45,0,0,0-1.41-5.27,2.16,2.16,0,0,0-1.59-1.09Z"/><path class="cls-3" d="M772.51,434.55a8.61,8.61,0,0,1,2.6,4.21l11.54.16s-.45-3.75-2.83-4.37Z"/><path class="cls-7" d="M546.53,322.05H660.78A26.94,26.94,0,0,1,687.73,349v0a27.55,27.55,0,0,1-27.55,27.55H546.53a0,0,0,0,1,0,0v-54.5a0,0,0,0,1,0,0Z"/><path class="cls-20" d="M687.8,343.2v11.73A14.17,14.17,0,0,1,682,366.61a10.06,10.06,0,0,1-5.68,1.79H542.81a3.15,3.15,0,0,0-2.83,3.38v1.39a3.14,3.14,0,0,0,2.83,3.38H773.5c6.62,0,12.47-3.93,16-9.94A26.42,26.42,0,0,0,793,353.22V344a25.3,25.3,0,0,0-1.82-9.52c-3-7.33-9.25-12.38-16.52-12.38H542.81a3.14,3.14,0,0,0-2.83,3.38v1.38a3.15,3.15,0,0,0,2.83,3.39h134a10.31,10.31,0,0,1,8.12,4.23A14.43,14.43,0,0,1,687.8,343.2Z"/><path class="cls-21" d="M540,371.78v1.39a3.14,3.14,0,0,0,2.83,3.38H773.5c6.62,0,12.47-3.93,16-9.94H682a10.06,10.06,0,0,1-5.68,1.79H542.81A3.15,3.15,0,0,0,540,371.78Z"/><polygon class="cls-5" points="546.53 349.3 563.65 350.22 546.53 350.77 546.53 349.3"/><polygon class="cls-5" points="546.53 336.76 587.26 337.68 546.53 338.23 546.53 336.76"/><path class="cls-22" d="M586.84,337.5a9.51,9.51,0,0,0-3.58,4.56,5.89,5.89,0,0,0-.28,1.59c-.15,3.78,0,12.32,0,12.32l-7.93-4.27L567.13,356V344.39a8.62,8.62,0,0,1,1.94-5.71,3,3,0,0,1,2.19-1.18Z"/><path class="cls-20" d="M586.84,337.5a9.51,9.51,0,0,0-3.58,4.56l-15.9.17s.62-4.06,3.9-4.73Z"/><path class="cls-3" d="M721.42,52.34A25.5,25.5,0,0,1,708.7,45q-10.56-11.14-21.1-22.3c-2.86,3.88-6.06,8.45-9.25,13.44l-.38.58c-1.39,2.2-2.78,4.47-4.13,6.8a10.1,10.1,0,0,0-1.16,3,8.16,8.16,0,0,0,2.38,7.64c11.29,12.08,20,22,37,27.77,6.65,2.27,13.55,3.8,20.36,5.56,3.48.9,6.25.13,8.4-2.12a11.39,11.39,0,0,0,1.64-2.14c1.81-3.12,9.26-15.18,13.7-22.4C745.48,58.14,735.79,55.83,721.42,52.34Z"/><path class="cls-10" d="M740.74,20.57a27.88,27.88,0,0,0-14.16-8.14c-4.21-1-45.7-11.13-49.94-12.17-1.55-.38-3-.49-4.28.7a3.74,3.74,0,0,0,0,5.56q7.62,8.07,15.27,16.13Q698.15,33.8,708.7,45a25.5,25.5,0,0,0,12.72,7.39c14.37,3.49,24.06,5.8,34.77,8.39l9.7,2.35c-5.91,10.19-5.43,9.56-6,9.82a6.5,6.5,0,0,0-3.74,7.43c-1.66,1.27-3.35,2.55-5,3.87-1.14.9-1.2,1.77,0,2.56a42.75,42.75,0,0,0,5.21,3.09c3,1.48,2.61,0,3.61-7.33,2.21-.61,4.95-3.74,4.7-5.77-.33-2.62,1.66-4,5.06-10.63.76-1.48,1.55-1.9,3.18-1.34,2.25.77,3.88.06,4.8-1.71.83-1.61.5-3.06-1.14-4.78L765.65,46.82,744.37,24.39Z"/><path class="cls-23" d="M573.37,304.51s-1.23-13.58,16.27-14.93h80.1s20,35.66,6,35.08c-15.56-.65-40.92-.39-40.92-.39-10.59,0-41.2-13.8-41.2-13.8l2.18-1.34C600.94,328,617,391,617,391c-.3,3.75,4.27,8.77,7.4,10.86,2,1.35,4.75,2.25,5.49,4.58,1,3-1.7,6.1-4.46,7.59-9.76,5.27-15.76,13.26-20.16,19.32-1.17,1.6-2-1-3.94-1-.81-3.08.9-6.18,1.93-9.19,1.56-4.54,5.73-12.18,5.78-17C609.13,398.74,573.37,304.51,573.37,304.51Z"/><path class="cls-24" d="M595.77,309.13l.7,2.61-2.88-1.27Z"/><path class="cls-25" d="M589.64,289.58h80.1s20,35.66,6,35.08c-15.56-.65-40.92-.39-40.92-.39-8.61,0-30.44-9.12-38.32-12.53l-.7-2.61-2.18,1.34,2.88,1.27C612,332.83,617,391,617,391a6,6,0,0,0,.41,2.5l-10.6,3.82c-7.8-25.18-33.47-92.82-33.47-92.82S572.14,290.93,589.64,289.58Z"/><path class="cls-23" d="M517.69,407.87c15.06,1.09,25.19-9.44,25.19-9.44l29-99.2c1.48-4.63,2.71-8.58,6-11.23,1-1.79,5.24-3.8,8-4.94l.14.14a22.73,22.73,0,0,1,6.35-.7l73.3,3.52,3.69-7.94,35.22,2.62L707,293.64c1.32,5.37,1.71,19.12-.71,23.84-2.9,5.67-14.83,8.57-23.47,7.35-5.56-.78-14.48-.46-20.62-.67-11.22-.37-52.67-8.59-69.53-12.25-3.18,21.66-42.07,95.46-42.07,95.46s.38,15.44-4.24,13.63c-5.89-3-30.15-7.07-31.68-9.52C513.85,410.17,515,407.67,517.69,407.87Z"/><path class="cls-3" d="M571.89,299.23c1.48-4.63,2.71-8.58,6-11.23,1-1.79,5.24-3.8,8-4.94l.14.14a22.73,22.73,0,0,1,6.35-.7l73.73.29,3.26-4.71,35.22,2.62L707,293.64c1.32,5.37,1.71,19.12-.71,23.84-2.9,5.67-14.83,8.57-23.47,7.35-5.56-.78-14.48-.46-20.62-.67-11.22-.37-52.67-8.59-69.53-12.25-7.64,34.89-28,68.06-38,87.63L543.88,395Z"/><path class="cls-11" d="M517.69,407.87c-2.71-.2-3.84,2.3-3,3.61,1.53,2.45,25.79,6.54,31.68,9.52,4.62,1.81,4.24-13.63,4.24-13.63s-7.52,4.52-16.07,3.49S517.69,407.87,517.69,407.87Z"/><path class="cls-11" d="M603.29,423.14c-2.62,1.81-2.74,6.11-1.93,9.19,2,0,2.77,2.63,3.94,1,4.4-6.06,10.4-14.05,20.16-19.32,2.76-1.49,5.43-4.6,4.46-7.59-.74-2.33-3.46-3.23-5.49-4.58a20.34,20.34,0,0,1-3.21-2.74S622.12,410.17,603.29,423.14Z"/><path class="cls-23" d="M685.87,208c-4.15-5.37-13.38-7.21-19.42-9.49-9.19-3.47-21.62-5.47-28.51-12.62-7.62-7.92-17-13.63-24.79-21.32-2.06-2-6.48-5.19-8.1-7.67l-14-20c-4.29,2.45-2.21,11.3.83,17.12,1.76,3.35,8,7.09,10.43,9.82l14,14.92L626.86,190c4.13,4.4,7.72,9.43,12.39,13.3,9.45,7.83,24.14,13.24,36.2,15.07a15.6,15.6,0,0,0,7.29-.24,6.78,6.78,0,0,0,4.72-5.15A6.91,6.91,0,0,0,685.87,208Z"/><path class="cls-26" d="M688,205.42c-4.33-3.13-17-7-26.72-9.66l-5.12,19.13c9.48,5.08,20.78,8.41,25,8.51C688.86,223.58,695.37,210.76,688,205.42Z"/><path class="cls-11" d="M677.11,185.4c-5.68-10.66-16.92-20-7.84-30.94,18.74-22.55,31.51-16.81,31.51-16.81a21.89,21.89,0,0,1,20,16.76c6.52,24.33-11.83,32.24-21.93,39.9a10.54,10.54,0,0,1-8.36,1.7S679.44,189.77,677.11,185.4Z"/><polygon class="cls-27" points="679.5 186.58 679.83 204.89 697.51 198.91 693.76 180.5 679.5 186.58"/><path class="cls-18" d="M704.16,280.74l.38-7.18c2.87-13.94,13-48.22,5-60l-8-12.51c-3.07-4.58-14.67-1.79-18-.15l-4.45,3.06c-1.51,4.35-14.08,12.77-17.48,21.82-1.92,5.13,4.55,28.93,4.41,34.86-.11,4.88-.12,12.7-.12,12.7C672.52,287,703.4,284.42,704.16,280.74Z"/><path class="cls-12" d="M651.35,273.57,649.1,278l34.22,1.49c3.62,1,7.77,3.12,11.83,2.14a28.87,28.87,0,0,0,4.23-11c2.65-20.64,11-34.69,8.15-46.61-4-16.74-19.46-20-21.35,3.41,0,0,.06,32.67,2.05,39.41C679.14,266.69,651.35,273.57,651.35,273.57Z"/><path class="cls-23" d="M689.81,170.18c-.51,2.61.76,5,2.84,5.45s4.17-1.38,4.68-4-.77-5-2.84-5.46S690.31,167.57,689.81,170.18Z"/><path class="cls-23" d="M679.32,148.8c-2.65,4.9-4.67,4.38-5.72,6.39-1.53,2.95-5,13.21-5,13.21a36,36,0,0,0,.16,9.16c1.29,10,5.08,11,5.08,11s7.32,2.11,17.27-3.3a8.58,8.58,0,0,0,2.94-3.34l-3.53-12.27S673.86,165.7,679.32,148.8Z"/><path class="cls-11" d="M710.43,172.11a5.75,5.75,0,0,0,1.7,3.25A18,18,0,0,0,715,177.3,14.54,14.54,0,0,1,707.78,204a9.45,9.45,0,0,1-6.18-1.62,11.49,11.49,0,0,1-3.34-4.77,16,16,0,0,1-1.56-7.27,8.18,8.18,0,0,1,3.4-6.4"/><path class="cls-23" d="M708.14,230.79l-16.67.72c-.39,12.11-1.59,28.51-1.43,40.62-11.39-1.73-37.48,1.16-37.49,1.36l-3.58.25c-3.85-.18-11-2.72-14.87-1.91-6.72,1.4-11.11,2.86-10.25,7.95l21.29.8a43.64,43.64,0,0,1,9.21,0s18.93,1.6,24.76,3,17.18,3,17.78,1.31a4.12,4.12,0,0,0,3-1,5.39,5.39,0,0,0,1.24-2.6C705.36,265.22,706.85,247.4,708.14,230.79Z"/><path class="cls-18" d="M712.2,219.2c-4-16.74-20.56-20.61-23.25,3.61,0,0,.15,10.93.57,22.61l21.68,2.11C712.8,236,713.73,225.59,712.2,219.2Z"/><path class="cls-28" d="M641.39,279.89l35,.71a3.92,3.92,0,0,1,3.84,4h0l-38.94-.8Z"/><path class="cls-11" d="M644.52,283.88l-59.76-1.23L572.42,241a3.73,3.73,0,0,1,3.7-4.64l52,1.06a3.73,3.73,0,0,1,3.55,2.83Z"/><path class="cls-28" d="M641.31,283.81l-62-1.27L567,240.88a3.74,3.74,0,0,1,3.7-4.65l54.22,1.11a3.76,3.76,0,0,1,3.55,2.84Z"/><path class="cls-29" d="M606,259.82a4.35,4.35,0,1,1-4.25-4.43A4.34,4.34,0,0,1,606,259.82Z"/><path class="cls-7" d="M86.31,100.49h83.74a9.84,9.84,0,0,1,9.85,9.84V230a9.85,9.85,0,0,1-9.85,9.85h-8.43l-4.11,15.27-9.78-15.27H86.31A9.85,9.85,0,0,1,76.46,230V110.33A9.84,9.84,0,0,1,86.31,100.49Z"/><path class="cls-8" d="M104.89,117.4a.19.19,0,0,1-.19-.2.19.19,0,0,1,.19-.19h41.86a.2.2,0,1,1,0,.39Z"/><path class="cls-8" d="M146.75,116H104.89a1.2,1.2,0,1,0,0,2.39h41.86a1.2,1.2,0,1,0,0-2.39Z"/><path class="cls-5" d="M129.53,126.79H104.89a1.2,1.2,0,1,1,0-2.4h24.64a1.2,1.2,0,0,1,0,2.4Z"/><path class="cls-10" d="M148.78,135.17H104.89a1.2,1.2,0,0,1,0-2.4h43.89a1.2,1.2,0,0,1,0,2.4Z"/><path class="cls-8" d="M104.89,142.55a.2.2,0,0,1,0-.4H110a.2.2,0,0,1,0,.4Z"/><path class="cls-8" d="M110,141.15h-5.06a1.2,1.2,0,1,0,0,2.4H110a1.2,1.2,0,1,0,0-2.4Z"/><path class="cls-10" d="M137.74,126.79h-3.08a1.2,1.2,0,1,1,0-2.4h3.08a1.2,1.2,0,0,1,0,2.4Z"/><path class="cls-8" d="M143.11,125.79a.2.2,0,0,1,0-.4h20.1a.2.2,0,0,1,0,.4Z"/><path class="cls-8" d="M163.21,124.39h-20.1a1.2,1.2,0,0,0,0,2.4h20.1a1.2,1.2,0,0,0,0-2.4Z"/><path class="cls-10" d="M163.21,118.4H152a1.2,1.2,0,1,1,0-2.39h11.23a1.2,1.2,0,1,1,0,2.39Z"/><path class="cls-3" d="M94.16,126.79a2.55,2.55,0,1,1-2.55-2.55A2.55,2.55,0,0,1,94.16,126.79Z"/><path class="cls-10" d="M120.08,143.55h-5a1.2,1.2,0,1,1,0-2.4h5a1.2,1.2,0,1,1,0,2.4Z"/><path class="cls-8" d="M104.89,158.07a.2.2,0,0,1,0-.4h41.86a.2.2,0,0,1,0,.4Z"/><path class="cls-8" d="M146.75,156.67H104.89a1.2,1.2,0,0,0,0,2.4h41.86a1.2,1.2,0,0,0,0-2.4Z"/><path class="cls-5" d="M129.53,167.45H104.89a1.2,1.2,0,0,1,0-2.4h24.64a1.2,1.2,0,0,1,0,2.4Z"/><path class="cls-10" d="M148.78,175.83H104.89a1.2,1.2,0,1,1,0-2.39h43.89a1.2,1.2,0,1,1,0,2.39Z"/><path class="cls-8" d="M104.89,183.22a.2.2,0,0,1,0-.4H110a.2.2,0,0,1,0,.4Z"/><path class="cls-8" d="M110,181.82h-5.06a1.2,1.2,0,0,0,0,2.4H110a1.2,1.2,0,0,0,0-2.4Z"/><path class="cls-10" d="M137.74,167.45h-3.08a1.2,1.2,0,1,1,0-2.4h3.08a1.2,1.2,0,0,1,0,2.4Z"/><path class="cls-8" d="M143.11,166.45a.2.2,0,0,1,0-.4h20.1a.2.2,0,1,1,0,.4Z"/><path class="cls-8" d="M163.21,165.05h-20.1a1.2,1.2,0,0,0,0,2.4h20.1a1.2,1.2,0,1,0,0-2.4Z"/><path class="cls-10" d="M163.21,159.07H152a1.2,1.2,0,0,1,0-2.4h11.23a1.2,1.2,0,0,1,0,2.4Z"/><path class="cls-3" d="M94.16,167.45a2.55,2.55,0,1,1-2.55-2.55A2.55,2.55,0,0,1,94.16,167.45Z"/><path class="cls-10" d="M120.08,184.22h-5a1.2,1.2,0,0,1,0-2.4h5a1.2,1.2,0,0,1,0,2.4Z"/><path class="cls-8" d="M104.89,198a.2.2,0,0,1,0-.4h41.86a.2.2,0,0,1,0,.4Z"/><path class="cls-8" d="M146.75,196.55H104.89a1.2,1.2,0,0,0,0,2.4h41.86a1.2,1.2,0,0,0,0-2.4Z"/><path class="cls-5" d="M129.53,207.33H104.89a1.2,1.2,0,1,1,0-2.4h24.64a1.2,1.2,0,1,1,0,2.4Z"/><path class="cls-10" d="M148.78,215.71H104.89a1.2,1.2,0,1,1,0-2.39h43.89a1.2,1.2,0,1,1,0,2.39Z"/><path class="cls-8" d="M104.89,223.1a.2.2,0,0,1,0-.4H110a.2.2,0,0,1,0,.4Z"/><path class="cls-8" d="M110,221.7h-5.06a1.2,1.2,0,0,0,0,2.4H110a1.2,1.2,0,0,0,0-2.4Z"/><path class="cls-10" d="M137.74,207.33h-3.08a1.2,1.2,0,1,1,0-2.4h3.08a1.2,1.2,0,1,1,0,2.4Z"/><path class="cls-8" d="M143.11,206.33a.2.2,0,0,1,0-.4h20.1a.2.2,0,0,1,0,.4Z"/><path class="cls-8" d="M163.21,204.93h-20.1a1.2,1.2,0,0,0,0,2.4h20.1a1.2,1.2,0,0,0,0-2.4Z"/><path class="cls-10" d="M163.21,199H152a1.2,1.2,0,0,1,0-2.4h11.23a1.2,1.2,0,1,1,0,2.4Z"/><path class="cls-3" d="M94.16,207.33a2.55,2.55,0,1,1-2.55-2.55A2.55,2.55,0,0,1,94.16,207.33Z"/><path class="cls-10" d="M120.08,224.1h-5a1.2,1.2,0,0,1,0-2.4h5a1.2,1.2,0,0,1,0,2.4Z"/><path class="cls-11" d="M111.32,342c1.1,3.92,4.54,6.94,5.29,10.94,1,5.6-3.45,10.64-4.52,16.23-1.54,8.05,4.41,15.87,11.56,19.88a10.93,10.93,0,0,0,6.1,1.76c2.83-.23,5.18-2.29,7-4.47,4.43-5.33,7-11.92,10.89-17.69,3.72-5.57,8.57-10.31,12.47-15.76a23.85,23.85,0,0,0,4.51-9.64c1.35-8-4.16-15.91-11.32-19.68-8.39-4.42-28.93-12.55-33.09-4.15C118.23,323.36,109.4,335.08,111.32,342Z"/><path class="cls-30" d="M181.94,338.25l-3.37,15.31s33.22,24.41,38.15,25.23l-.46-14.37C209.26,359.83,181.94,338.25,181.94,338.25Z"/><path class="cls-11" d="M170.7,332.51c1.51-8,5.75-35.69,5.85-43.83.18-14.63-17.14-24.51-30.25-22.2-4.7.83-11.65,3.76-14.43,7.52-1,1.3-2.44,2.22-3.47,3.51a22.86,22.86,0,0,0-2.89,4.85,41.53,41.53,0,0,0-3,11.12c-1.26,8.82,1.38,17.66-2.35,25.89-1.07,2.34-2.36,4.58-3.41,6.92-.65,1.45-1.87,3.79-1.06,5.4C117.92,336.05,169.94,336.51,170.7,332.51Z"/><path class="cls-10" d="M128.25,401.24c-.26-6.88-5.24-39.2-9.54-54.8-2.44-8.84,5.19-13.75,5.19-13.75l15.29-11.37-1.86,1.38,18.35-1.84c2.41,2.72,15.2,5.74,21.33,10.14,5.89,4.48-3.5,16.07,1.69,26.1,3.28,6.36-1.69,18.42-2.71,26.47-3.55,28,1.95,39.45,1.95,39.45s-18.23,17.09-53.3,8.44C124.64,431.46,128.51,408.13,128.25,401.24Z"/><path class="cls-31" d="M137.46,304.8l.53,5.38s0,.69.06,1.79c.06,1.46.84,7.16,1.14,9.35.44,3.4.68,3.22,2.06,4.39,11.23,9.46,13.84,1.4,15.24.53.45-.27.46-2.21.28-4.74-.11-1.35-.26-2.85-.45-4.37h0C155.77,312.54,155,308,155,308Z"/><path class="cls-30" d="M171.07,286.39a28.8,28.8,0,0,1,.19,4.88c-.24,6.21-1.65,24.55-8.27,27.2a12.06,12.06,0,0,1-8.31.12c-15-4.34-16.33-19-16.51-23.74-.27-7.35,5.68-21,19.18-20.72C166.06,274.34,170.11,279.27,171.07,286.39Z"/><path class="cls-11" d="M136.38,295.9s4.19-1.13,6.51,2.22c0,0,19.28-4,20.79-15.15,0,0,7.1,11.06,8.8,16.29,0,0,11.68-30.49-23.86-29.26-23.09.79-15.15,29.26-15.15,29.26A5.22,5.22,0,0,1,136.38,295.9Z"/><path class="cls-30" d="M143.53,299.55c.86,2.94-.18,5.83-2.35,6.45s-4.61-1.27-5.48-4.21.18-5.83,2.34-6.45S142.66,296.6,143.53,299.55Z"/><path class="cls-10" d="M167.75,326.54a82,82,0,0,1,22.39,11.86S178.73,356.47,177.58,358c0,0-13.22-7.64-17.52-12.56S156.27,326.51,167.75,326.54Z"/><path class="cls-30" d="M224.45,346.31a10.68,10.68,0,0,0,4.25-1.2c1.17-.73,7.31-5.16,8.61-5.64,4.28-1.59,7.52.57,10.45,2.9s-4.56,5.72-7.23,8.55c-1.31,1.39-4.55-1.48-6.15-.43a33.54,33.54,0,0,1-6.94,3.18L215,358.25c-5.48,2-9.75,5-15.95,4.42-3.38-.33-11.2-4.3-7.08-8.6,5.49-5.72,14.76-5.34,22.12-6.35Z"/><path class="cls-21" d="M167.58,462.55c4-.34,13.23-4.35,15.45-7.4l.07-.09c8.65-13.84,7.39-12.95,10.15-19.89,4.26-10.73,9.65-21.23,14.69-33.67,3.25-8,1.33-4.17,3.25-8,3.43-6.83,10.73-5.89,14.08-13.61,0,0,17.86-23.93-6.2-24.67s-52.19,56.3-54.81,63.31C161.51,425.86,127,465.93,167.58,462.55Z"/><path class="cls-18" d="M275.31,462.55H241.06s-1.28-5,1-8.34c2-3,1.23-4.69-.25-7.16a14.51,14.51,0,0,0,5.77,1,12.86,12.86,0,0,0,5.1-1.63c1.47,1.53,7.78,8,9.75,9.31C264.64,457.18,274.62,456.66,275.31,462.55Z"/><path class="cls-21" d="M233.47,363.05c2.06,14,12.08,36.42,21.36,77.51,1.79,7.95-11.59,10.93-11.63,10.85-12.19-25.17-33.95-51.06-33.95-72.49,0-10.44,2.9-16.2,11.27-21.27C225.67,354.52,232.65,357.48,233.47,363.05Z"/><path class="cls-20" d="M140.87,429.42a32.74,32.74,0,0,1-15.43,1.52A33.54,33.54,0,0,0,126,454.5c3.78,9.27,14.58,9,23.14,8.05,4-.46,13.23-4.35,15.45-7.4l.07-.09c8.65-13.84,7.39-12.95,10.15-19.89,4.26-10.73,9.65-21.23,14.69-33.67,3.25-8,1.33-4.17,3.25-8,3.43-6.83,10.73-5.89,14.08-13.61,0,0,17.86-23.93-6.2-24.67s-54.37,56.66-58.7,62.93c-4.15,6-24,32.23-12.4,41.53"/><path class="cls-18" d="M256.9,462.55H222.65s-1.28-5,1-8.34c2-3,1.23-4.69-.25-7.16a14.51,14.51,0,0,0,5.77,1,12.86,12.86,0,0,0,5.1-1.63c1.47,1.53,7.78,8,9.76,9.31C246.23,457.18,256.21,456.66,256.9,462.55Z"/><path class="cls-20" d="M215.06,363.05c2.07,14,12.08,36.42,21.36,77.51,1.79,7.95-11.59,10.93-11.63,10.85-12.19-25.17-33.95-51.06-33.95-72.49,0-10.44,2.9-16.2,11.27-21.27C207.26,354.52,214.24,357.48,215.06,363.05Z"/><path class="cls-30" d="M140.26,344l-12.08,11s29.26,30.9,34.49,32.44L169,373.3C162.24,367.42,140.26,344,140.26,344Z"/><path class="cls-10" d="M135.48,332a82,82,0,0,1,17.08,18.71s-16.85,13.17-18.44,14.2c0,0-10.75-14.9-13.13-21S124.68,328.1,135.48,332Z"/><polygon class="cls-32" points="252.4 339.05 246.45 328.31 233.57 364.23 241.17 372.39 252.4 339.05"/><polygon class="cls-3" points="221.33 345.34 209.36 379.52 241.17 372.39 252.4 339.05 221.33 345.34"/><polygon class="cls-7" points="210 377.8 209.44 376.82 220.76 344.47 221.33 345.34 210 377.8"/><polygon class="cls-5" points="220.76 344.47 250.91 338.61 252.4 339.05 221.33 345.34 220.76 344.47"/><polygon class="cls-7" points="252.4 339.05 245.96 328.84 241.86 340.37 250.91 338.61 252.4 339.05"/><path class="cls-30" d="M207.93,365a13,13,0,0,0,5.1-1.71,19.51,19.51,0,0,0,3.42-3.71,19.73,19.73,0,0,1,16.72-6.78,58.17,58.17,0,0,1-7.85,11.85,30.16,30.16,0,0,1-5,4.86A40.54,40.54,0,0,1,212,373.8l-14.84,6.32c-8.79,3.73-17.79,7.52-27.32,8-3.16.17-6.5-.08-9.13-1.83s-4.2-5.41-2.74-8.21q2.37-1.5,4.67-3.09a24.7,24.7,0,0,1,3.93-2.59c1.93-.86,4.24-.53,6.29-.9,7.53-1.33,15-2.8,22.56-4.2Z"/><path class="cls-10" d="M540.76,12H429.45a3.77,3.77,0,0,0-3.77,3.77V37.5a3.77,3.77,0,0,0,3.77,3.77h22.44L438.76,52.83l28.9-11.56h73.1a3.77,3.77,0,0,0,3.77-3.77V15.74A3.77,3.77,0,0,0,540.76,12Z"/><path class="cls-5" d="M455.29,23.5H438.22a1.89,1.89,0,0,1,0-3.78h17.07a1.89,1.89,0,0,1,0,3.78Zm19,7.06a1.89,1.89,0,0,0-1.89-1.88H438.22a1.89,1.89,0,1,0,0,3.77h34.14A1.89,1.89,0,0,0,474.25,30.56Zm18.55,0a1.89,1.89,0,0,0-1.89-1.88h-9.86a1.89,1.89,0,1,0,0,3.77h9.86A1.89,1.89,0,0,0,492.8,30.56Zm26.06,0A1.88,1.88,0,0,0,517,28.68H499.54a1.89,1.89,0,1,0,0,3.77H517A1.88,1.88,0,0,0,518.86,30.56Zm14.8,0a1.88,1.88,0,0,0-1.88-1.88h-7.31a1.89,1.89,0,1,0,0,3.77h7.31A1.88,1.88,0,0,0,533.66,30.56Zm-26.79-8.95A1.89,1.89,0,0,0,505,19.72H465.71a1.89,1.89,0,1,0,0,3.78H505A1.89,1.89,0,0,0,506.87,21.61Zm26.79,0a1.89,1.89,0,0,0-1.88-1.89h-18a1.89,1.89,0,0,0,0,3.78h18A1.89,1.89,0,0,0,533.66,21.61Z"/></g></g></g></svg>